<?xml version="1.0" encoding="UTF-8" standalone="no"?>
<!-- Generator: Adobe Illustrator 27.0.0, SVG Export Plug-In . SVG Version: 6.00 Build 0)  -->

<svg
   version="1.1"
   id="Capa_1"
   x="0px"
   y="0px"
   viewBox="0 0 71.995208 77.109996"
   xml:space="preserve"
   width="71.995209"
   height="77.110001"
   xmlns="http://www.w3.org/2000/svg"
   xmlns:svg="http://www.w3.org/2000/svg"><defs
   id="defs61">
	
	
	
	
	
	

	
	
	
	
	
	
	
	
	
	
	

	
	
</defs>
<style
   type="text/css"
   id="style2">
	.st0{fill:#1A1AFF;}
	.st1{display:none;}
	.st2{font-family:'Comfortaa-Light';}
	.st3{font-size:20.6478px;}
	.st4{font-family:'Comfortaa-Regular';}
	.st5{stroke:#000000;stroke-miterlimit:10;}
	.st6{fill:none;}
	.st7{font-size:119px;}
	.st8{letter-spacing:-11;}
</style>


<text
   transform="rotate(-90)"
   class="st1 st2 st3"
   id="text12"
   x="-67.684601"
   y="-238.04456">global</text>
<text
   class="st1 st4 st3"
   id="text14"
   x="255.23132"
   y="96.903397">Grupo Global DMTech</text>




<path
   class="st0"
   d="M 71.22352,28.87 C 67.90352,11.85 53.15352,0 35.99352,0 c -5.75,0 -11.26,1.29 -16.16,3.79 C 3.5135199,12.1 -3.9964801,30.84 2.1135199,48.13 c 2.04,5.76 5.37,10.68 9.9500001,14.73 2.1,1.86 5.18,1.71 7.11,-0.24 1.84,-1.86 2.06,-5.3 -0.54,-7.76 -7.21,-6.85 -9.8800001,-15.28 -7.58,-24.97 3.15,-13.29 16.04,-21.54 29.51,-19.2 11.75,2.04 20.87,12.58 21.09,24.51 0.14,7.89 -2.75,14.55 -8.56,19.91 -2.21,2.04 -2.41,5.18 -0.43,7.39 1.87,2.09 5.12,2.3 7.26,0.3 9.92,-9.26 13.89,-20.66 11.3,-33.93 z"
   id="path4" /><path
   class="st0"
   d="m 40.88352,44.67 c -0.76,-2.47 -3.1,-3.87 -5.77,-3.51 -2.37,0.32 -4.25,2.49 -4.26,4.99 -0.02,4.31 -0.01,8.62 -0.01,12.93 0,4.26 -0.01,8.51 0,12.77 0.01,2.96 2.26,5.26 5.13,5.26 2.85,0 5.15,-2.32 5.16,-5.25 0.01,-8.51 0.01,-17.02 -0.01,-25.54 0,-0.55 -0.08,-1.12 -0.24,-1.65 z"
   id="path6" /></svg>
