<?xml version="1.0" encoding="UTF-8" standalone="no"?>
<!-- Generator: Adobe Illustrator 27.0.0, SVG Export Plug-In . SVG Version: 6.00 Build 0)  -->

<svg
   version="1.1"
   id="Capa_1"
   x="0px"
   y="0px"
   viewBox="0 0 841.89 595.28"
   style="enable-background:new 0 0 841.89 595.28;"
   xml:space="preserve"
   sodipodi:docname="dataquantum.svg"
   inkscape:version="1.1.2 (0a00cf5339, 2022-02-04)"
   xmlns:inkscape="http://www.inkscape.org/namespaces/inkscape"
   xmlns:sodipodi="http://sodipodi.sourceforge.net/DTD/sodipodi-0.dtd"
   xmlns="http://www.w3.org/2000/svg"
   xmlns:svg="http://www.w3.org/2000/svg"><defs
   id="defs61">
	
	
	
	
	
	

	
	
	
	
	
	
	
	
	
	
	
</defs><sodipodi:namedview
   id="namedview59"
   pagecolor="#ffffff"
   bordercolor="#666666"
   borderopacity="1.0"
   inkscape:pageshadow="2"
   inkscape:pageopacity="0.0"
   inkscape:pagecheckerboard="0"
   showgrid="false"
   inkscape:zoom="0.60391745"
   inkscape:cx="513.31518"
   inkscape:cy="314.61253"
   inkscape:window-width="1920"
   inkscape:window-height="1043"
   inkscape:window-x="0"
   inkscape:window-y="0"
   inkscape:window-maximized="1"
   inkscape:current-layer="Capa_1" />
<style
   type="text/css"
   id="style2">
	.st0{fill:#1A1AFF;}
	.st1{display:none;}
	.st2{font-family:'Comfortaa-Light';}
	.st3{font-size:20.6478px;}
	.st4{font-family:'Comfortaa-Regular';}
	.st5{stroke:#000000;stroke-miterlimit:10;}
	.st6{fill:none;}
	.st7{font-size:119px;}
	.st8{letter-spacing:-11;}
</style>
<g
   id="g8">
	<path
   class="st0"
   d="M370.74,298.87c-3.32-17.02-18.07-28.87-35.23-28.87c-5.75,0-11.26,1.29-16.16,3.79   c-16.32,8.31-23.83,27.05-17.72,44.34c2.04,5.76,5.37,10.68,9.95,14.73c2.1,1.86,5.18,1.71,7.11-0.24c1.84-1.86,2.06-5.3-0.54-7.76   c-7.21-6.85-9.88-15.28-7.58-24.97c3.15-13.29,16.04-21.54,29.51-19.2c11.75,2.04,20.87,12.58,21.09,24.51   c0.14,7.89-2.75,14.55-8.56,19.91c-2.21,2.04-2.41,5.18-0.43,7.39c1.87,2.09,5.12,2.3,7.26,0.3   C369.36,323.54,373.33,312.14,370.74,298.87z"
   id="path4" />
	<path
   class="st0"
   d="M340.4,314.67c-0.76-2.47-3.1-3.87-5.77-3.51c-2.37,0.32-4.25,2.49-4.26,4.99c-0.02,4.31-0.01,8.62-0.01,12.93   c0,4.26-0.01,8.51,0,12.77c0.01,2.96,2.26,5.26,5.13,5.26c2.85,0,5.15-2.32,5.16-5.25c0.01-8.51,0.01-17.02-0.01-25.54   C340.64,315.77,340.56,315.2,340.4,314.67z"
   id="path6" />
</g>
<path
   d="M121.05,255.73c0-0.51-0.08-1.04-0.23-1.53c-0.7-2.29-2.88-3.59-5.35-3.25c-2.2,0.3-3.94,2.31-3.95,4.63  c-0.02,4-0.01,13.94-0.01,17.94c0,0.74,0,1.47,0,2.21c-6.83-4.09-14.6-5.4-23.22-3.71c-15.8,3.08-26.79,16.76-26.79,32.69  c0,5.33,1.2,10.45,3.51,14.99c7.71,15.15,25.1,22.11,41.14,16.44c5.34-1.89,9.91-4.98,13.66-9.23c1.73-1.95,1.59-4.8-0.22-6.6  c-1.72-1.71-4.91-1.91-7.2,0.5c-6.36,6.69-14.18,9.16-23.17,7.03c-12.33-2.93-19.99-14.88-17.81-27.38  c1.9-10.9,11.67-19.36,22.74-19.56c7.32-0.13,13.5,2.55,18.47,7.94c1.9,2.05,4.8,2.23,6.85,0.4c1.04-0.93,1.56-2.23,1.55-3.54  c0.01-0.1,0.03-0.2,0.03-0.31C121.07,277.47,121.07,263.63,121.05,255.73z"
   id="path10" />
<text
   transform="matrix(0 -1 1 0 54.1255 337.6846)"
   class="st1 st2 st3"
   id="text12">global</text>
<text
   transform="matrix(1 0 0 1 547.4014 366.9034)"
   class="st1 st4 st3"
   id="text14">Grupo Global DMTech</text>
<path
   class="st5"
   d="m 435.75,272.98 c 0.87,0.83 1.31,1.92 1.31,3.27 v 55.93 c 0,1.35 -0.44,2.46 -1.31,3.33 -0.87,0.87 -1.98,1.31 -3.33,1.31 -1.35,0 -2.44,-0.44 -3.27,-1.31 -0.83,-0.87 -1.25,-1.98 -1.25,-3.33 v -4.05 c -2.62,2.94 -5.79,5.24 -9.52,6.9 -3.73,1.67 -7.78,2.5 -12.14,2.5 -5.63,0 -10.69,-1.19 -15.17,-3.57 -4.48,-2.38 -7.99,-5.85 -10.53,-10.41 -2.54,-4.56 -3.81,-10.01 -3.81,-16.36 v -30.94 c 0,-1.27 0.44,-2.34 1.31,-3.21 0.87,-0.87 1.94,-1.31 3.21,-1.31 1.35,0 2.46,0.44 3.33,1.31 0.87,0.87 1.31,1.95 1.31,3.21 v 30.94 c 0,7.06 1.96,12.44 5.89,16.12 3.93,3.69 9.06,5.53 15.41,5.53 3.89,0 7.4,-0.75 10.53,-2.26 3.13,-1.51 5.61,-3.59 7.44,-6.25 1.82,-2.66 2.74,-5.61 2.74,-8.87 v -35.22 c 0,-1.35 0.42,-2.44 1.25,-3.27 0.83,-0.83 1.92,-1.25 3.27,-1.25 1.34,0.02 2.45,0.43 3.33,1.26 z"
   id="path16" /><path
   class="st5"
   d="m 493.04,275.48 c 5.04,2.9 9,6.88 11.9,11.96 2.9,5.08 4.34,10.71 4.34,16.9 v 27.96 c 0,1.27 -0.44,2.34 -1.31,3.21 -0.87,0.87 -1.98,1.31 -3.33,1.31 -1.35,0 -2.46,-0.42 -3.33,-1.25 -0.87,-0.83 -1.31,-1.92 -1.31,-3.27 v -7.14 c -2.78,3.81 -6.31,6.8 -10.59,8.98 -4.28,2.18 -9,3.27 -14.16,3.27 -6.03,0 -11.48,-1.45 -16.36,-4.34 -4.88,-2.9 -8.73,-6.86 -11.54,-11.9 -2.82,-5.04 -4.22,-10.65 -4.22,-16.84 0,-6.19 1.45,-11.82 4.34,-16.9 2.9,-5.08 6.86,-9.06 11.9,-11.96 5.04,-2.89 10.65,-4.34 16.84,-4.34 6.19,0 11.79,1.46 16.83,4.35 z m -4.58,50.4 c 3.65,-2.14 6.52,-5.1 8.63,-8.87 2.1,-3.77 3.15,-7.99 3.15,-12.67 0,-4.68 -1.05,-8.9 -3.15,-12.67 -2.1,-3.77 -4.98,-6.74 -8.63,-8.93 -3.65,-2.18 -7.74,-3.27 -12.26,-3.27 -4.52,0 -8.63,1.09 -12.32,3.27 -3.69,2.18 -6.59,5.16 -8.69,8.93 -2.1,3.77 -3.15,7.99 -3.15,12.67 0,4.68 1.05,8.91 3.15,12.67 2.1,3.77 5,6.72 8.69,8.87 3.69,2.14 7.79,3.21 12.32,3.21 4.53,0 8.61,-1.07 12.26,-3.21 z"
   id="path18" /><path
   class="st5"
   d="m 561.23,274.59 c 4.48,2.38 7.99,5.85 10.53,10.41 2.54,4.56 3.81,10.02 3.81,16.36 v 30.94 c 0,1.27 -0.44,2.34 -1.31,3.21 -0.87,0.87 -1.95,1.31 -3.21,1.31 -1.35,0 -2.46,-0.44 -3.33,-1.31 -0.87,-0.87 -1.31,-1.94 -1.31,-3.21 v -30.94 c 0,-7.06 -1.96,-12.44 -5.89,-16.12 -3.93,-3.69 -9.06,-5.53 -15.41,-5.53 -3.89,0 -7.4,0.75 -10.53,2.26 -3.13,1.51 -5.61,3.59 -7.44,6.25 -1.83,2.66 -2.74,5.61 -2.74,8.87 v 35.22 c 0,1.35 -0.42,2.44 -1.25,3.27 -0.83,0.83 -1.92,1.25 -3.27,1.25 -1.35,0 -2.46,-0.42 -3.33,-1.25 -0.87,-0.83 -1.31,-1.92 -1.31,-3.27 v -55.93 c 0,-1.35 0.44,-2.46 1.31,-3.33 0.87,-0.87 1.98,-1.31 3.33,-1.31 1.35,0 2.44,0.44 3.27,1.31 0.83,0.87 1.25,1.98 1.25,3.33 v 4.05 c 2.62,-2.93 5.79,-5.24 9.52,-6.9 3.73,-1.67 7.77,-2.5 12.14,-2.5 5.63,-0.01 10.69,1.18 15.17,3.56 z"
   id="path20" /><path
   class="st5"
   d="m 615.67,328.97 c 0.79,0.87 1.19,1.98 1.19,3.33 0,1.27 -0.48,2.34 -1.43,3.21 -0.95,0.87 -2.14,1.31 -3.57,1.31 h -2.5 c -4.21,0 -7.97,-1.01 -11.3,-3.03 -3.33,-2.02 -5.93,-4.76 -7.79,-8.21 -1.86,-3.45 -2.8,-7.36 -2.8,-11.72 v -31.77 h -7.74 c -1.27,0 -2.28,-0.38 -3.03,-1.13 -0.75,-0.75 -1.13,-1.68 -1.13,-2.8 0,-1.19 0.38,-2.16 1.13,-2.92 0.75,-0.75 1.76,-1.13 3.03,-1.13 h 7.74 v -18.45 c 0,-1.35 0.42,-2.46 1.25,-3.33 0.83,-0.87 1.92,-1.31 3.27,-1.31 1.35,0 2.46,0.44 3.33,1.31 0.87,0.87 1.31,1.98 1.31,3.33 v 18.45 h 13.45 c 1.27,0 2.28,0.38 3.04,1.13 0.75,0.75 1.13,1.72 1.13,2.92 0,1.11 -0.38,2.04 -1.13,2.8 -0.75,0.75 -1.77,1.13 -3.04,1.13 h -13.45 v 31.77 c 0,4.05 1.19,7.36 3.57,9.94 2.38,2.58 5.43,3.87 9.16,3.87 h 3.21 c 1.27,0 2.3,0.43 3.1,1.3 z"
   id="path22" /><path
   class="st5"
   d="m 677.67,272.98 c 0.87,0.83 1.31,1.92 1.31,3.27 v 55.93 c 0,1.35 -0.44,2.46 -1.31,3.33 -0.87,0.87 -1.98,1.31 -3.33,1.31 -1.35,0 -2.44,-0.44 -3.27,-1.31 -0.83,-0.87 -1.25,-1.98 -1.25,-3.33 v -4.05 c -2.62,2.94 -5.79,5.24 -9.52,6.9 -3.73,1.67 -7.78,2.5 -12.14,2.5 -5.63,0 -10.69,-1.19 -15.17,-3.57 -4.48,-2.38 -7.99,-5.85 -10.53,-10.41 -2.54,-4.56 -3.81,-10.01 -3.81,-16.36 v -30.94 c 0,-1.27 0.44,-2.34 1.31,-3.21 0.87,-0.87 1.94,-1.31 3.21,-1.31 1.35,0 2.46,0.44 3.33,1.31 0.87,0.87 1.31,1.95 1.31,3.21 v 30.94 c 0,7.06 1.96,12.44 5.89,16.12 3.93,3.69 9.06,5.53 15.41,5.53 3.89,0 7.4,-0.75 10.53,-2.26 3.13,-1.51 5.61,-3.59 7.44,-6.25 1.82,-2.66 2.74,-5.61 2.74,-8.87 v -35.22 c 0,-1.35 0.42,-2.44 1.25,-3.27 0.83,-0.83 1.92,-1.25 3.27,-1.25 1.34,0.02 2.45,0.43 3.33,1.26 z"
   id="path24" /><path
   class="st5"
   d="m 769.47,274.35 c 3.61,2.22 6.43,5.38 8.45,9.46 2.02,4.09 3.03,8.83 3.03,14.22 v 34.27 c 0,1.35 -0.42,2.44 -1.25,3.27 -0.83,0.83 -1.92,1.25 -3.27,1.25 -1.35,0 -2.46,-0.42 -3.33,-1.25 -0.87,-0.83 -1.31,-1.92 -1.31,-3.27 v -34.27 c 0,-5.63 -1.45,-10.09 -4.34,-13.39 -2.9,-3.29 -6.68,-4.94 -11.36,-4.94 -5,0 -9.04,1.67 -12.14,5 -3.1,3.33 -4.6,7.7 -4.52,13.09 v 0.24 34.27 c 0,1.35 -0.42,2.44 -1.25,3.27 -0.83,0.83 -1.92,1.25 -3.27,1.25 -1.35,0 -2.46,-0.42 -3.33,-1.25 -0.87,-0.83 -1.31,-1.92 -1.31,-3.27 v -34.27 c 0,-5.63 -1.45,-10.09 -4.34,-13.39 -2.9,-3.29 -6.68,-4.94 -11.36,-4.94 -4.92,0 -8.97,1.63 -12.14,4.88 -3.17,3.25 -4.76,7.42 -4.76,12.5 v 35.22 c 0,1.35 -0.42,2.44 -1.25,3.27 -0.83,0.83 -1.92,1.25 -3.27,1.25 -1.35,0 -2.46,-0.42 -3.33,-1.25 -0.87,-0.83 -1.31,-1.92 -1.31,-3.27 v -55.93 c 0,-1.35 0.44,-2.46 1.31,-3.33 0.87,-0.87 1.98,-1.31 3.33,-1.31 1.35,0 2.44,0.44 3.27,1.31 0.83,0.87 1.25,1.98 1.25,3.33 v 2.62 c 2.22,-2.54 4.86,-4.5 7.91,-5.89 3.05,-1.39 6.37,-2.08 9.94,-2.08 4.36,0 8.29,0.99 11.78,2.97 3.49,1.98 6.27,4.76 8.33,8.33 2.3,-3.57 5.3,-6.35 8.98,-8.33 3.69,-1.98 7.83,-2.97 12.44,-2.97 4.67,0 8.81,1.11 12.42,3.33 z"
   id="path26" /><path
   class="st5"
   d="m 169.58982,275.48 c 5.04,2.9 9,6.88 11.9,11.96 2.9,5.08 4.34,10.71 4.34,16.9 v 27.96 c 0,1.27 -0.44,2.34 -1.31,3.21 -0.87,0.87 -1.98,1.31 -3.33,1.31 -1.35,0 -2.46,-0.42 -3.33,-1.25 -0.87,-0.83 -1.31,-1.92 -1.31,-3.27 v -7.14 c -2.78,3.81 -6.31,6.8 -10.59,8.98 -4.28,2.18 -9,3.27 -14.16,3.27 -6.03,0 -11.48,-1.45 -16.36,-4.34 -4.88,-2.9 -8.73,-6.86 -11.54,-11.9 -2.82,-5.04 -4.22,-10.65 -4.22,-16.84 0,-6.19 1.45,-11.82 4.34,-16.9 2.9,-5.08 6.86,-9.06 11.9,-11.96 5.04,-2.89 10.65,-4.34 16.84,-4.34 6.19,0 11.79,1.46 16.83,4.35 z m -4.58,50.4 c 3.65,-2.14 6.52,-5.1 8.63,-8.87 2.1,-3.77 3.15,-7.99 3.15,-12.67 0,-4.68 -1.05,-8.9 -3.15,-12.67 -2.1,-3.77 -4.98,-6.74 -8.63,-8.93 -3.65,-2.18 -7.74,-3.27 -12.26,-3.27 -4.52,0 -8.63,1.09 -12.32,3.27 -3.69,2.18 -6.59,5.16 -8.69,8.93 -2.1,3.77 -3.15,7.99 -3.15,12.67 0,4.68 1.05,8.91 3.15,12.67 2.1,3.77 5,6.72 8.69,8.87 3.69,2.14 7.79,3.21 12.32,3.21 4.53,0 8.61,-1.07 12.26,-3.21 z"
   id="path958" /><path
   class="st5"
   d="m 225.04464,328.97 c 0.79,0.87 1.19,1.98 1.19,3.33 0,1.27 -0.48,2.34 -1.43,3.21 -0.95,0.87 -2.14,1.31 -3.57,1.31 h -2.5 c -4.21,0 -7.97,-1.01 -11.3,-3.03 -3.33,-2.02 -5.93,-4.76 -7.79,-8.21 -1.86,-3.45 -2.8,-7.36 -2.8,-11.72 v -31.77 h -7.74 c -1.27,0 -2.28,-0.38 -3.03,-1.13 -0.75,-0.75 -1.13,-1.68 -1.13,-2.8 0,-1.19 0.38,-2.16 1.13,-2.92 0.75,-0.75 1.76,-1.13 3.03,-1.13 h 7.74 v -18.45 c 0,-1.35 0.42,-2.46 1.25,-3.33 0.83,-0.87 1.92,-1.31 3.27,-1.31 1.35,0 2.46,0.44 3.33,1.31 0.87,0.87 1.31,1.98 1.31,3.33 v 18.45 h 13.45 c 1.27,0 2.28,0.38 3.04,1.13 0.75,0.75 1.13,1.72 1.13,2.92 0,1.11 -0.38,2.04 -1.13,2.8 -0.75,0.75 -1.77,1.13 -3.04,1.13 h -13.45 v 31.77 c 0,4.05 1.19,7.36 3.57,9.94 2.38,2.58 5.43,3.87 9.16,3.87 h 3.21 c 1.27,0 2.3,0.43 3.1,1.3 z"
   id="path962" /><path
   class="st5"
   d="m 275.25946,275.48 c 5.04,2.9 9,6.88 11.9,11.96 2.9,5.08 4.34,10.71 4.34,16.9 v 27.96 c 0,1.27 -0.44,2.34 -1.31,3.21 -0.87,0.87 -1.98,1.31 -3.33,1.31 -1.35,0 -2.46,-0.42 -3.33,-1.25 -0.87,-0.83 -1.31,-1.92 -1.31,-3.27 v -7.14 c -2.78,3.81 -6.31,6.8 -10.59,8.98 -4.28,2.18 -9,3.27 -14.16,3.27 -6.03,0 -11.48,-1.45 -16.36,-4.34 -4.88,-2.9 -8.73,-6.86 -11.54,-11.9 -2.82,-5.04 -4.22,-10.65 -4.22,-16.84 0,-6.19 1.45,-11.82 4.34,-16.9 2.9,-5.08 6.86,-9.06 11.9,-11.96 5.04,-2.89 10.65,-4.34 16.84,-4.34 6.19,0 11.79,1.46 16.83,4.35 z m -4.58,50.4 c 3.65,-2.14 6.52,-5.1 8.63,-8.87 2.1,-3.77 3.15,-7.99 3.15,-12.67 0,-4.68 -1.05,-8.9 -3.15,-12.67 -2.1,-3.77 -4.98,-6.74 -8.63,-8.93 -3.65,-2.18 -7.74,-3.27 -12.26,-3.27 -4.52,0 -8.63,1.09 -12.32,3.27 -3.69,2.18 -6.59,5.16 -8.69,8.93 -2.1,3.77 -3.15,7.99 -3.15,12.67 0,4.68 1.05,8.91 3.15,12.67 2.1,3.77 5,6.72 8.69,8.87 3.69,2.14 7.79,3.21 12.32,3.21 4.53,0 8.61,-1.07 12.26,-3.21 z"
   id="path964" />
<rect
   x="113.6"
   y="244.31"
   class="st6"
   width="585.74"
   height="152.42"
   id="rect30" />

<path
   d="m 740.78,350.32 c 0.1,-0.13 0.18,-0.22 0.25,-0.32 1.73,-2.28 3.95,-3.86 6.72,-4.65 0.26,-0.07 0.37,-0.21 0.46,-0.45 1.43,-3.82 4.12,-6.26 8.12,-7.08 6.05,-1.24 11.59,2.76 12.77,8.45 0.03,0.13 0.06,0.26 0.1,0.41 4.16,-0.23 7.6,1.19 10.22,4.41 2.06,2.53 2.91,5.46 2.52,8.7 -0.81,6.72 -6.69,10.58 -11.8,10.36 0,-1.16 0,-2.32 0,-3.52 0.11,-0.01 0.22,-0.03 0.34,-0.03 4.02,-0.1 7.4,-3.16 7.9,-7.16 0.55,-4.4 -2.49,-8.42 -6.89,-9.1 -1.17,-0.18 -2.33,-0.1 -3.47,0.22 -0.66,0.19 -1.32,0.38 -1.98,0.57 -0.13,0.04 -0.26,0.07 -0.43,0.11 0,-0.15 -0.01,-0.27 0,-0.39 0.04,-0.67 0.08,-1.34 0.12,-2.01 0.23,-4.23 -3.19,-7.73 -7.43,-7.65 -3.15,0.06 -6.31,2.32 -6.98,5.99 -0.07,0.39 -0.15,0.78 -0.22,1.17 -0.57,0.09 -1.11,0.17 -1.65,0.28 -3.68,0.7 -6.66,3.8 -7.21,7.51 -0.37,2.5 0.2,4.77 1.69,6.81 0.15,0.2 0.22,0.39 0.22,0.64 -0.01,1.33 0,2.66 0,3.99 0,0.12 0,0.24 0,0.44 -0.19,-0.13 -0.32,-0.21 -0.45,-0.3 -2.68,-2.03 -4.34,-4.69 -4.96,-7.99 -0.19,-1.03 -0.18,-2.07 -0.16,-3.12 0.02,-1.48 -0.33,-2.87 -1.19,-4.08 -0.99,-1.39 -2.41,-1.86 -4.05,-1.7 -2.46,0.24 -4.11,2.35 -4.5,4.23 -0.12,0.56 -0.17,1.14 -0.17,1.71 -0.01,4.34 -0.01,8.68 -0.01,13.01 0,0.16 0,0.32 0,0.47 -0.36,0.1 -3.49,0.11 -3.93,0.01 0,-0.15 0,-0.31 0,-0.47 0,-4.28 0,-8.57 0,-12.85 0,-0.98 -0.12,-1.94 -0.42,-2.88 -0.18,-0.56 -0.44,-1.1 -0.79,-1.57 -0.99,-1.32 -2.34,-1.83 -3.94,-1.67 -1.84,0.19 -3.12,1.25 -4.04,2.79 -0.59,1 -0.89,2.08 -0.89,3.25 0.01,4.3 0,8.59 0,12.89 0,0.16 0,0.33 0,0.53 -0.79,0.09 -1.55,0.03 -2.31,0.04 -0.78,0.01 -1.57,0 -2.35,0 -0.77,0 -1.53,0 -2.35,0 -0.12,-1.3 -0.11,-2.57 -0.22,-3.84 -0.19,-0.01 -0.21,0.14 -0.26,0.24 -1.07,1.87 -2.65,3.1 -4.7,3.7 -4,1.16 -8.09,-0.2 -10.45,-3.93 -0.95,-1.5 -1.49,-3.15 -1.72,-4.9 -0.29,-2.23 -0.17,-4.44 0.48,-6.6 0.64,-2.11 1.72,-3.95 3.45,-5.35 1.97,-1.61 4.25,-2.29 6.79,-2.09 1.35,0.11 2.61,0.48 3.77,1.2 0.79,0.5 1.45,1.13 1.96,1.91 0.05,0.08 0.11,0.15 0.18,0.24 0.15,-0.13 0.1,-0.29 0.1,-0.43 0,-2.83 0,-5.66 0,-8.48 0,-1.32 0,-2.64 0,-3.95 0,-0.15 0,-0.3 0,-0.48 1.34,0 2.65,0 4.01,0 0,3.46 0,6.91 0,10.41 1.01,0 1.98,0 2.99,0 0.12,1.23 0.1,2.43 0.23,3.64 0.23,-0.06 0.28,-0.21 0.35,-0.33 0.53,-0.83 1.15,-1.57 1.93,-2.18 1.14,-0.9 2.45,-1.39 3.89,-1.54 1.22,-0.13 2.42,-0.04 3.56,0.43 1.7,0.69 2.87,1.93 3.61,3.6 0.05,0.11 0.1,0.22 0.16,0.33 0.01,0.01 0.02,0.01 0.06,0.03 0.16,-0.03 0.19,-0.2 0.26,-0.32 0.63,-1.02 1.4,-1.9 2.36,-2.61 1.16,-0.87 2.47,-1.35 3.92,-1.47 1.01,-0.09 2,-0.03 2.97,0.26 1.28,0.39 2.35,1.1 3.21,2.14 0.05,0.12 0.14,0.24 0.25,0.37 z m -33.81,8.76 c 0.01,0 0.01,0 0.02,0 0,-0.69 0,-1.37 0,-2.06 0,-0.66 -0.07,-1.31 -0.26,-1.95 -1.42,-4.69 -6.63,-5.49 -9.58,-3.15 -1.17,0.93 -1.9,2.15 -2.36,3.55 -0.59,1.79 -0.71,3.63 -0.48,5.49 0.16,1.25 0.51,2.44 1.13,3.54 2.13,3.78 7.14,3.97 9.72,1.27 1.1,-1.16 1.71,-2.54 1.8,-4.14 0.05,-0.84 0.01,-1.7 0.01,-2.55 z"
   id="path34" /><g
   id="g992"><path
     d="m 615.66,357.71 c 0,-0.51 0,-1.02 0,-1.56 0.85,0 1.66,0 2.49,0 0.01,0.11 0.03,0.21 0.03,0.31 0,4.15 0.01,8.29 -0.01,12.44 0,0.75 -0.1,1.51 -0.26,2.24 -0.47,2.15 -1.84,3.47 -3.91,4.09 -1.37,0.41 -2.78,0.49 -4.2,0.38 -1.02,-0.08 -2.01,-0.29 -2.95,-0.71 -0.55,-0.25 -1.07,-0.56 -1.49,-1.01 -0.6,-0.65 -0.92,-1.42 -1,-2.32 0.93,0 1.83,0 2.72,0 0.02,0.03 0.05,0.04 0.05,0.07 0.27,1.1 1.02,1.69 2.08,1.92 1.23,0.26 2.46,0.25 3.67,-0.09 1.45,-0.4 2.3,-1.36 2.49,-2.85 0.11,-0.83 0.12,-1.67 0.18,-2.5 0,-0.04 -0.02,-0.08 -0.04,-0.16 -0.09,0.07 -0.16,0.12 -0.22,0.18 -0.94,1.06 -2.13,1.59 -3.53,1.74 -1.2,0.13 -2.39,0.1 -3.55,-0.26 -0.26,-0.08 -0.52,-0.17 -0.77,-0.28 -1.91,-0.82 -3.1,-2.22 -3.44,-4.29 -0.26,-1.55 -0.26,-3.09 0.19,-4.61 0.74,-2.53 2.95,-4.36 5.57,-4.66 0.81,-0.09 1.61,-0.06 2.42,0.08 1.18,0.21 2.21,0.73 3.07,1.56 0.1,0.1 0.21,0.2 0.32,0.3 0.03,0.01 0.06,0 0.09,-0.01 z m -9.06,5.46 c 0.08,0.61 0.1,1.23 0.24,1.83 0.35,1.53 1.25,2.58 2.81,2.96 0.5,0.12 1.03,0.14 1.55,0.13 2.04,-0.06 3.52,-1.17 4.13,-3.11 0.45,-1.44 0.45,-2.89 0.02,-4.34 -0.43,-1.45 -1.43,-2.33 -2.87,-2.74 -0.61,-0.17 -1.25,-0.18 -1.88,-0.13 -1.78,0.13 -3.06,1.14 -3.6,2.84 -0.26,0.83 -0.35,1.68 -0.4,2.56 z"
     id="path36" /><path
     d="m 646.51,350.78 c 0.88,0 1.71,0 2.6,0 0.04,0.57 0.01,1.12 0.02,1.68 0,0.58 0,1.15 0,1.73 0,0.56 0,1.13 0,1.69 0,0.56 0,1.11 0,1.76 0.17,-0.15 0.26,-0.22 0.34,-0.3 1.13,-1.06 2.47,-1.61 4.01,-1.7 1.03,-0.07 2.06,0 3.05,0.33 2.18,0.72 3.61,2.15 4.12,4.41 0.43,1.9 0.38,3.8 -0.35,5.62 -0.75,1.87 -2.01,3.26 -3.98,3.91 -1.39,0.46 -2.8,0.5 -4.23,0.19 -0.98,-0.21 -1.81,-0.7 -2.52,-1.41 -0.16,-0.16 -0.33,-0.32 -0.55,-0.54 0,0.59 0,1.08 0,1.61 -0.86,0 -1.67,0 -2.51,0 0,-6.31 0,-12.62 0,-18.98 z m 11.59,12.07 c 0,-0.22 0.01,-0.44 0,-0.66 -0.08,-1.09 -0.39,-2.1 -1.05,-2.99 -0.46,-0.61 -1.04,-1.05 -1.77,-1.28 -1.2,-0.37 -2.39,-0.32 -3.55,0.15 -1.41,0.57 -2.32,1.59 -2.6,3.11 -0.09,0.5 -0.13,1.01 -0.15,1.51 -0.02,1.01 0.07,2 0.43,2.95 0.45,1.17 1.23,2 2.44,2.39 0.91,0.29 1.83,0.33 2.77,0.17 1.48,-0.25 2.42,-1.16 2.97,-2.51 0.4,-0.89 0.53,-1.85 0.51,-2.84 z"
     id="path38" /><path
     d="m 666.75,360.15 c -0.84,0 -1.66,0 -2.53,0 0.02,-0.24 0.03,-0.46 0.06,-0.69 0.19,-1.33 0.83,-2.33 2.06,-2.93 1.09,-0.53 2.24,-0.82 3.44,-0.88 1.42,-0.07 2.83,-0.01 4.2,0.41 0.39,0.12 0.78,0.27 1.15,0.44 1.26,0.61 1.89,1.61 1.89,3.02 0,2.51 0,5.02 0,7.54 0,0.15 0,0.3 0.01,0.45 0.03,0.43 0.2,0.62 0.63,0.68 0.2,0.03 0.41,0.02 0.61,0.01 0.17,0 0.35,-0.02 0.55,-0.04 0,0.58 0,1.13 0,1.69 -0.88,0.25 -1.76,0.32 -2.65,0.15 -0.84,-0.16 -1.39,-0.68 -1.62,-1.51 -0.04,-0.16 -0.09,-0.31 -0.14,-0.5 -0.1,0.08 -0.17,0.14 -0.24,0.2 -2.19,1.89 -4.71,2.49 -7.52,1.85 -0.86,-0.2 -1.59,-0.66 -2.22,-1.28 -1.55,-1.51 -1.4,-4.46 0.56,-5.72 1.01,-0.64 2.1,-1 3.28,-1.13 1.55,-0.18 3.11,-0.33 4.67,-0.51 0.24,-0.03 0.48,-0.1 0.71,-0.19 0.37,-0.15 0.61,-0.44 0.67,-0.83 0.17,-1.01 -0.05,-1.9 -1.19,-2.39 -0.91,-0.39 -1.87,-0.45 -2.83,-0.41 -0.52,0.02 -1.04,0.08 -1.54,0.21 -1.05,0.27 -1.71,0.94 -1.92,2.03 -0.03,0.11 -0.06,0.21 -0.09,0.33 z m 7.5,2.64 c -0.35,0.12 -0.65,0.24 -0.96,0.34 -0.82,0.25 -1.67,0.32 -2.51,0.42 -0.82,0.09 -1.63,0.2 -2.44,0.33 -0.48,0.08 -0.91,0.28 -1.31,0.57 -0.98,0.7 -1.19,2.5 0.13,3.29 0.3,0.18 0.64,0.33 0.97,0.43 0.8,0.23 1.6,0.16 2.4,0.01 0.91,-0.18 1.77,-0.48 2.53,-1.04 0.66,-0.49 1.11,-1.13 1.18,-1.95 0.06,-0.78 0.01,-1.57 0.01,-2.4 z"
     id="path40" /><path
     d="m 635.89,355.49 c 1.58,0.03 3.06,0.37 4.42,1.17 1.84,1.09 2.82,2.71 3.04,4.82 0.15,1.4 0.05,2.77 -0.41,4.1 -0.9,2.59 -2.69,4.14 -5.42,4.56 -1.52,0.24 -3.05,0.27 -4.53,-0.19 -2.64,-0.81 -4.19,-2.62 -4.63,-5.34 -0.22,-1.31 -0.18,-2.63 0.19,-3.92 0.78,-2.71 2.59,-4.36 5.34,-4.96 0.66,-0.13 1.33,-0.16 2,-0.24 z m 4.71,7.14 c -0.07,-0.57 -0.1,-1.15 -0.22,-1.71 -0.34,-1.62 -1.26,-2.74 -2.9,-3.19 -0.74,-0.2 -1.49,-0.24 -2.25,-0.17 -0.75,0.07 -1.46,0.26 -2.09,0.68 -0.7,0.47 -1.14,1.14 -1.48,1.88 -0.55,1.21 -0.68,2.48 -0.56,3.78 0.09,0.94 0.37,1.82 0.89,2.62 0.52,0.79 1.24,1.31 2.15,1.56 0.96,0.26 1.92,0.28 2.9,0.11 1.3,-0.22 2.22,-0.93 2.78,-2.13 0.48,-1.09 0.73,-2.23 0.78,-3.43 z"
     id="path42" /><path
     d="m 625.11,369.78 c -0.87,0 -1.74,0 -2.64,0 0,-6.3 0,-12.59 0,-18.9 0.89,0 1.76,0 2.63,0 0.08,0.32 0.1,18.43 0.01,18.9 z"
     id="path44" /><path
     d="m 681.62,369.76 c 0,-6.29 0,-12.56 0,-18.83 0.3,-0.1 2.17,-0.13 2.65,-0.04 0.07,0.31 0.1,18.22 0.03,18.84 -0.28,0.09 -2.12,0.11 -2.68,0.03 z"
     id="path46" /></g><path
   d="m 754.63,367.92 c -1.49,0 -2.96,0 -4.41,0 -0.04,0.8 0.44,1.53 1.15,1.8 0.9,0.34 1.72,0.01 2.54,-1.06 0.09,0.04 0.19,0.07 0.28,0.12 0.1,0.05 0.19,0.11 0.28,0.16 -0.5,1.24 -1.88,1.85 -3.22,1.44 -1.28,-0.39 -2.04,-1.74 -1.76,-3.14 0.27,-1.35 1.47,-2.24 2.82,-2.11 1.45,0.16 2.35,1.36 2.32,2.79 z m -0.85,-0.65 c -0.08,-0.85 -0.88,-1.44 -1.85,-1.41 -0.85,0.03 -1.57,0.66 -1.6,1.41 1.15,0 2.28,0 3.45,0 z"
   id="path48" /><path
   d="m 764.44,370.36 c -0.27,0 -0.47,0 -0.67,0 -0.09,-0.29 -0.11,-6.41 -0.03,-6.95 0.2,0 0.41,0 0.68,0 0.01,0.86 0.02,1.71 0.02,2.63 0.18,-0.16 0.29,-0.26 0.4,-0.35 0.43,-0.36 0.92,-0.54 1.48,-0.52 0.95,0.04 1.63,0.69 1.76,1.69 0.04,0.34 0.06,0.68 0.06,1.03 0.01,0.69 0,1.37 0,2.06 0,0.13 -0.01,0.27 -0.02,0.42 -0.24,0 -0.46,0 -0.73,0 0,-0.16 0,-0.31 0,-0.46 0,-0.74 0,-1.48 0,-2.22 0,-0.25 0,-0.5 -0.04,-0.74 -0.11,-0.8 -0.77,-1.24 -1.55,-1.05 -0.74,0.17 -1.3,0.83 -1.33,1.63 -0.03,0.77 -0.03,1.53 -0.04,2.3 0.01,0.15 0.01,0.32 0.01,0.53 z"
   id="path50" /><path
   d="m 761.11,368.99 c 0.17,0.12 0.34,0.23 0.52,0.36 -0.39,0.57 -0.9,0.89 -1.52,1.05 -1.18,0.31 -2.25,0.12 -3.06,-0.85 -0.67,-0.79 -0.78,-1.72 -0.41,-2.67 0.37,-0.96 1.1,-1.52 2.12,-1.68 0.7,-0.11 1.37,-0.02 1.99,0.33 0.38,0.22 0.61,0.44 0.87,0.86 -0.18,0.11 -0.35,0.23 -0.59,0.38 -0.1,-0.13 -0.18,-0.26 -0.29,-0.36 -0.79,-0.7 -2,-0.74 -2.81,-0.1 -0.63,0.5 -0.89,1.28 -0.67,2.06 0.2,0.74 0.88,1.34 1.63,1.45 0.75,0.1 1.41,-0.09 1.96,-0.63 0.06,-0.06 0.12,-0.12 0.18,-0.17 0.01,0 0.02,0 0.08,-0.03 z"
   id="path52" /><path
   d="m 746.11,364.33 c 0.27,0.1 0.48,0.18 0.7,0.27 0.01,0.23 0.03,0.45 0.04,0.71 0.33,0 0.64,0 0.96,0 0,0.22 0,0.4 0,0.61 -0.31,0.01 -0.62,0.03 -0.96,0.04 0,1.29 0,2.55 0,3.85 0.24,0.02 0.46,0.05 0.71,0.07 0,0.19 0,0.37 0,0.58 -0.32,0.14 -0.65,0.13 -0.99,0.05 -0.25,-0.06 -0.4,-0.24 -0.45,-0.49 -0.03,-0.15 -0.04,-0.3 -0.04,-0.45 0,-1.64 0,-3.29 0,-4.93 0.01,-0.08 0.02,-0.16 0.03,-0.31 z"
   id="path54" />
<g
   id="g1006"
   transform="rotate(-90,314.21388,627.71257)"><path
     d="m 615.66,357.71 c 0,-0.51 0,-1.02 0,-1.56 0.85,0 1.66,0 2.49,0 0.01,0.11 0.03,0.21 0.03,0.31 0,4.15 0.01,8.29 -0.01,12.44 0,0.75 -0.1,1.51 -0.26,2.24 -0.47,2.15 -1.84,3.47 -3.91,4.09 -1.37,0.41 -2.78,0.49 -4.2,0.38 -1.02,-0.08 -2.01,-0.29 -2.95,-0.71 -0.55,-0.25 -1.07,-0.56 -1.49,-1.01 -0.6,-0.65 -0.92,-1.42 -1,-2.32 0.93,0 1.83,0 2.72,0 0.02,0.03 0.05,0.04 0.05,0.07 0.27,1.1 1.02,1.69 2.08,1.92 1.23,0.26 2.46,0.25 3.67,-0.09 1.45,-0.4 2.3,-1.36 2.49,-2.85 0.11,-0.83 0.12,-1.67 0.18,-2.5 0,-0.04 -0.02,-0.08 -0.04,-0.16 -0.09,0.07 -0.16,0.12 -0.22,0.18 -0.94,1.06 -2.13,1.59 -3.53,1.74 -1.2,0.13 -2.39,0.1 -3.55,-0.26 -0.26,-0.08 -0.52,-0.17 -0.77,-0.28 -1.91,-0.82 -3.1,-2.22 -3.44,-4.29 -0.26,-1.55 -0.26,-3.09 0.19,-4.61 0.74,-2.53 2.95,-4.36 5.57,-4.66 0.81,-0.09 1.61,-0.06 2.42,0.08 1.18,0.21 2.21,0.73 3.07,1.56 0.1,0.1 0.21,0.2 0.32,0.3 0.03,0.01 0.06,0 0.09,-0.01 z m -9.06,5.46 c 0.08,0.61 0.1,1.23 0.24,1.83 0.35,1.53 1.25,2.58 2.81,2.96 0.5,0.12 1.03,0.14 1.55,0.13 2.04,-0.06 3.52,-1.17 4.13,-3.11 0.45,-1.44 0.45,-2.89 0.02,-4.34 -0.43,-1.45 -1.43,-2.33 -2.87,-2.74 -0.61,-0.17 -1.25,-0.18 -1.88,-0.13 -1.78,0.13 -3.06,1.14 -3.6,2.84 -0.26,0.83 -0.35,1.68 -0.4,2.56 z"
     id="path994" /><path
     d="m 646.51,350.78 c 0.88,0 1.71,0 2.6,0 0.04,0.57 0.01,1.12 0.02,1.68 0,0.58 0,1.15 0,1.73 0,0.56 0,1.13 0,1.69 0,0.56 0,1.11 0,1.76 0.17,-0.15 0.26,-0.22 0.34,-0.3 1.13,-1.06 2.47,-1.61 4.01,-1.7 1.03,-0.07 2.06,0 3.05,0.33 2.18,0.72 3.61,2.15 4.12,4.41 0.43,1.9 0.38,3.8 -0.35,5.62 -0.75,1.87 -2.01,3.26 -3.98,3.91 -1.39,0.46 -2.8,0.5 -4.23,0.19 -0.98,-0.21 -1.81,-0.7 -2.52,-1.41 -0.16,-0.16 -0.33,-0.32 -0.55,-0.54 0,0.59 0,1.08 0,1.61 -0.86,0 -1.67,0 -2.51,0 0,-6.31 0,-12.62 0,-18.98 z m 11.59,12.07 c 0,-0.22 0.01,-0.44 0,-0.66 -0.08,-1.09 -0.39,-2.1 -1.05,-2.99 -0.46,-0.61 -1.04,-1.05 -1.77,-1.28 -1.2,-0.37 -2.39,-0.32 -3.55,0.15 -1.41,0.57 -2.32,1.59 -2.6,3.11 -0.09,0.5 -0.13,1.01 -0.15,1.51 -0.02,1.01 0.07,2 0.43,2.95 0.45,1.17 1.23,2 2.44,2.39 0.91,0.29 1.83,0.33 2.77,0.17 1.48,-0.25 2.42,-1.16 2.97,-2.51 0.4,-0.89 0.53,-1.85 0.51,-2.84 z"
     id="path996" /><path
     d="m 666.75,360.15 c -0.84,0 -1.66,0 -2.53,0 0.02,-0.24 0.03,-0.46 0.06,-0.69 0.19,-1.33 0.83,-2.33 2.06,-2.93 1.09,-0.53 2.24,-0.82 3.44,-0.88 1.42,-0.07 2.83,-0.01 4.2,0.41 0.39,0.12 0.78,0.27 1.15,0.44 1.26,0.61 1.89,1.61 1.89,3.02 0,2.51 0,5.02 0,7.54 0,0.15 0,0.3 0.01,0.45 0.03,0.43 0.2,0.62 0.63,0.68 0.2,0.03 0.41,0.02 0.61,0.01 0.17,0 0.35,-0.02 0.55,-0.04 0,0.58 0,1.13 0,1.69 -0.88,0.25 -1.76,0.32 -2.65,0.15 -0.84,-0.16 -1.39,-0.68 -1.62,-1.51 -0.04,-0.16 -0.09,-0.31 -0.14,-0.5 -0.1,0.08 -0.17,0.14 -0.24,0.2 -2.19,1.89 -4.71,2.49 -7.52,1.85 -0.86,-0.2 -1.59,-0.66 -2.22,-1.28 -1.55,-1.51 -1.4,-4.46 0.56,-5.72 1.01,-0.64 2.1,-1 3.28,-1.13 1.55,-0.18 3.11,-0.33 4.67,-0.51 0.24,-0.03 0.48,-0.1 0.71,-0.19 0.37,-0.15 0.61,-0.44 0.67,-0.83 0.17,-1.01 -0.05,-1.9 -1.19,-2.39 -0.91,-0.39 -1.87,-0.45 -2.83,-0.41 -0.52,0.02 -1.04,0.08 -1.54,0.21 -1.05,0.27 -1.71,0.94 -1.92,2.03 -0.03,0.11 -0.06,0.21 -0.09,0.33 z m 7.5,2.64 c -0.35,0.12 -0.65,0.24 -0.96,0.34 -0.82,0.25 -1.67,0.32 -2.51,0.42 -0.82,0.09 -1.63,0.2 -2.44,0.33 -0.48,0.08 -0.91,0.28 -1.31,0.57 -0.98,0.7 -1.19,2.5 0.13,3.29 0.3,0.18 0.64,0.33 0.97,0.43 0.8,0.23 1.6,0.16 2.4,0.01 0.91,-0.18 1.77,-0.48 2.53,-1.04 0.66,-0.49 1.11,-1.13 1.18,-1.95 0.06,-0.78 0.01,-1.57 0.01,-2.4 z"
     id="path998" /><path
     d="m 635.89,355.49 c 1.58,0.03 3.06,0.37 4.42,1.17 1.84,1.09 2.82,2.71 3.04,4.82 0.15,1.4 0.05,2.77 -0.41,4.1 -0.9,2.59 -2.69,4.14 -5.42,4.56 -1.52,0.24 -3.05,0.27 -4.53,-0.19 -2.64,-0.81 -4.19,-2.62 -4.63,-5.34 -0.22,-1.31 -0.18,-2.63 0.19,-3.92 0.78,-2.71 2.59,-4.36 5.34,-4.96 0.66,-0.13 1.33,-0.16 2,-0.24 z m 4.71,7.14 c -0.07,-0.57 -0.1,-1.15 -0.22,-1.71 -0.34,-1.62 -1.26,-2.74 -2.9,-3.19 -0.74,-0.2 -1.49,-0.24 -2.25,-0.17 -0.75,0.07 -1.46,0.26 -2.09,0.68 -0.7,0.47 -1.14,1.14 -1.48,1.88 -0.55,1.21 -0.68,2.48 -0.56,3.78 0.09,0.94 0.37,1.82 0.89,2.62 0.52,0.79 1.24,1.31 2.15,1.56 0.96,0.26 1.92,0.28 2.9,0.11 1.3,-0.22 2.22,-0.93 2.78,-2.13 0.48,-1.09 0.73,-2.23 0.78,-3.43 z"
     id="path1000" /><path
     d="m 625.11,369.78 c -0.87,0 -1.74,0 -2.64,0 0,-6.3 0,-12.59 0,-18.9 0.89,0 1.76,0 2.63,0 0.08,0.32 0.1,18.43 0.01,18.9 z"
     id="path1002" /><path
     d="m 681.62,369.76 c 0,-6.29 0,-12.56 0,-18.83 0.3,-0.1 2.17,-0.13 2.65,-0.04 0.07,0.31 0.1,18.22 0.03,18.84 -0.28,0.09 -2.12,0.11 -2.68,0.03 z"
     id="path1004" /></g></svg>
