<?xml version="1.0" encoding="UTF-8" standalone="no"?>
<!-- Created with Inkscape (http://www.inkscape.org/) -->

<svg
   width="97.944923mm"
   height="126.13545mm"
   viewBox="0 0 97.944923 126.13545"
   version="1.1"
   id="svg5"
   inkscape:version="1.1.2 (0a00cf5339, 2022-02-04)"
   sodipodi:docname="electrodomesticos2.svg"
   xmlns:inkscape="http://www.inkscape.org/namespaces/inkscape"
   xmlns:sodipodi="http://sodipodi.sourceforge.net/DTD/sodipodi-0.dtd"
   xmlns="http://www.w3.org/2000/svg"
   xmlns:svg="http://www.w3.org/2000/svg">
  <sodipodi:namedview
     id="namedview7"
     pagecolor="#ffffff"
     bordercolor="#666666"
     borderopacity="1.0"
     inkscape:pageshadow="2"
     inkscape:pageopacity="0.0"
     inkscape:pagecheckerboard="0"
     inkscape:document-units="mm"
     showgrid="false"
     inkscape:snap-bbox="true"
     inkscape:snap-bbox-midpoints="true"
     fit-margin-top="0"
     fit-margin-left="0"
     fit-margin-right="0"
     fit-margin-bottom="0"
     inkscape:zoom="0.46929649"
     inkscape:cx="322.82364"
     inkscape:cy="535.90854"
     inkscape:window-width="1920"
     inkscape:window-height="1016"
     inkscape:window-x="0"
     inkscape:window-y="0"
     inkscape:window-maximized="1"
     inkscape:current-layer="layer1" />
  <defs
     id="defs2" />
  <g
     inkscape:label="Layer 1"
     inkscape:groupmode="layer"
     id="layer1"
     transform="translate(-9.4355996,-84.568997)">
    <path
       id="path2240"
       style="fill:#000000;stroke:none;stroke-width:14.4055;stroke-linecap:square;stroke-miterlimit:4;stroke-dasharray:none;paint-order:markers fill stroke"
       transform="scale(0.26458333)"
       d="m 267.53125,614.67188 c -33.84948,0.27164 -49.67808,47.14542 -94.48047,25.56835 -13.81149,-7.68 -25.05617,-19.96374 -27.9668,-23.28906 a 75.109452,75.109452 0 0 0 74.94336,70.66602 75.109452,75.109452 0 0 0 72.83594,-56.9375 v -8.26953 c -9.63798,-5.62177 -17.91738,-7.79779 -25.33203,-7.73828 z m -46.77583,-98.83281 c -52.64109,0 -95.43307,42.792 -95.43308,95.43308 1e-5,52.64111 42.79199,95.43307 95.43308,95.43307 52.64108,0 95.43306,-42.79196 95.43307,-95.43307 -10e-6,-52.64108 -42.79199,-95.43308 -95.43307,-95.43308 z m 0,10.83663 c 46.78289,0 84.58907,37.81357 84.58907,84.59645 0,46.78291 -37.80618,84.58907 -84.58907,84.58907 -46.78289,0 -84.58907,-37.80616 -84.58908,-84.58907 1e-5,-46.78288 37.80619,-84.59645 84.58908,-84.59645 z M 42.980469,426.17773 c -4.053993,0 -7.31836,3.26437 -7.31836,7.31836 v 355.55079 c 0,4.05399 3.264367,7.3164 7.31836,7.3164 H 398.53125 c 4.05399,0 7.31641,-3.26241 7.31641,-7.3164 V 433.49609 c 0,-4.05399 -3.26242,-7.31836 -7.31641,-7.31836 z M 220.75586,502.43945 A 108.83145,108.83145 0 0 1 329.58789,611.27148 108.83145,108.83145 0 0 1 220.75586,720.10156 108.83145,108.83145 0 0 1 111.92383,611.27148 108.83145,108.83145 0 0 1 220.75586,502.43945 Z M 42.365234,319.63086 c -3.714071,0 -6.703125,2.99101 -6.703125,6.70508 v 79.13867 c 0,3.71407 2.989054,6.70312 6.703125,6.70312 H 399.14453 c 3.71407,0 6.70313,-2.98905 6.70313,-6.70312 v -79.13867 c 0,-3.71407 -2.98906,-6.70508 -6.70313,-6.70508 z m 260.681646,20.73633 h 79.36523 c 3.71407,0 6.70508,2.991 6.70508,6.70508 v 32.97851 c 0,3.71407 -2.99101,6.70508 -6.70508,6.70508 h -79.36523 c -3.71408,0 -6.70508,-2.99101 -6.70508,-6.70508 v -32.97851 c 0,-3.71408 2.991,-6.70508 6.70508,-6.70508 z m -82.29102,4.6875 a 20.85069,20.85069 0 0 1 20.84961,20.84961 20.85069,20.85069 0 0 1 -20.84961,20.85156 20.85069,20.85069 0 0 1 -20.85156,-20.85156 20.85069,20.85069 0 0 1 20.85156,-20.84961 z M 65.898438,368.33594 h 75.300782 c 2.48516,0 4.48437,1.99921 4.48437,4.48437 v 9.44922 c 0,2.48516 -1.99921,4.48633 -4.48437,4.48633 H 65.898438 c -2.485161,0 -4.486329,-2.00117 -4.486329,-4.48633 v -9.44922 c 0,-2.48516 2.001168,-4.48437 4.486329,-4.48437 z" />
  </g>
</svg>
