<?xml version="1.0" encoding="UTF-8" standalone="no"?>
<!-- Created with Inkscape (http://www.inkscape.org/) -->

<svg
   width="145.92145mm"
   height="134.96478mm"
   viewBox="0 0 145.92145 134.96478"
   version="1.1"
   id="svg5"
   inkscape:version="1.1.2 (0a00cf5339, 2022-02-04)"
   sodipodi:docname="muebles2.svg"
   xmlns:inkscape="http://www.inkscape.org/namespaces/inkscape"
   xmlns:sodipodi="http://sodipodi.sourceforge.net/DTD/sodipodi-0.dtd"
   xmlns="http://www.w3.org/2000/svg"
   xmlns:svg="http://www.w3.org/2000/svg">
  <sodipodi:namedview
     id="namedview7"
     pagecolor="#ffffff"
     bordercolor="#666666"
     borderopacity="1.0"
     inkscape:pageshadow="2"
     inkscape:pageopacity="0.0"
     inkscape:pagecheckerboard="0"
     inkscape:document-units="mm"
     showgrid="false"
     inkscape:snap-bbox="true"
     inkscape:snap-bbox-midpoints="true"
     fit-margin-top="0"
     fit-margin-left="0"
     fit-margin-right="0"
     fit-margin-bottom="0"
     inkscape:zoom="0.46929649"
     inkscape:cx="410.18845"
     inkscape:cy="631.79675"
     inkscape:window-width="1920"
     inkscape:window-height="1016"
     inkscape:window-x="0"
     inkscape:window-y="0"
     inkscape:window-maximized="1"
     inkscape:current-layer="layer1" />
  <defs
     id="defs2" />
  <g
     inkscape:label="Layer 1"
     inkscape:groupmode="layer"
     id="layer1"
     transform="translate(13.911862,-59.370642)">
    <path
       style="fill:#000000;stroke-width:1.60867"
       d="m 17.90437,190.44584 c 0.45905,-2.21198 1.21072,-5.83149 1.66994,-8.0434 0.61968,-2.98476 1.86402,-4.02171 4.82604,-4.02171 2.19507,0 3.99105,0.27057 3.99105,0.60192 0,0.33075 -1.87168,3.95045 -4.15923,8.0434 -4.53249,8.10951 -7.65142,9.7952 -6.3278,3.41997 z m 75.77596,-3.41996 c -2.28755,-4.09296 -4.15917,-7.71248 -4.15917,-8.04341 0,-0.33075 1.79593,-0.60192 3.99099,-0.60192 2.96202,0 4.20636,1.03695 4.82604,4.0217 0.45905,2.21192 1.21071,5.83142 1.67,8.0434 1.32363,6.37523 -1.79537,4.68954 -6.32786,-3.41995 z M 4.59723,172.73724 c -9.25887,-4.02262 -18.12473,-28.96659 -18.48806,-52.01584 -0.25051,-15.8776 1.65522,-19.55718 10.12818,-19.55718 8.97682,0 10.51574,3.37607 12.83236,28.15186 1.34253,14.35851 2.73821,21.79513 4.45314,23.72797 2.26111,2.54845 6.56632,2.81518 45.43341,2.81518 38.86707,0 43.17235,-0.26692 45.43339,-2.81518 1.71501,-1.93284 3.11067,-9.36946 4.4532,-23.72797 2.31656,-24.77579 3.85548,-28.15186 12.8323,-28.15186 4.89389,0 6.81055,0.82603 8.3983,3.61951 4.86408,8.55808 0.0122,42.67342 -8.42195,59.20354 -5.62192,11.01989 -6.54013,11.18393 -62.21316,11.11316 -39.31324,-0.0487 -50.64023,-0.53809 -54.84111,-2.36319 z m 13.7384,-24.51922 c -1.38109,-1.54835 -2.76016,-5.71081 -3.06453,-9.24987 l -0.55328,-6.43469 h 44.23861 44.23862 l -0.55329,6.43469 c -1.04473,12.14616 -0.75118,12.06505 -43.68521,12.06505 -34.26582,0 -38.36285,-0.28394 -40.62061,-2.81518 z m -5.01706,-26.54315 c -0.53323,-1.99072 -0.97993,-6.19355 -0.99196,-9.33954 -0.0122,-3.54819 -1.54896,-7.78975 -4.04367,-11.17111 C 3.50337,94.685876 3.27433,89.744746 7.3507,81.055765 11.35307,72.52462 17.74003,66.072906 25.81225,62.407006 c 5.57589,-2.532277 10.73583,-3.003237 33.23034,-3.033089 25.30944,-0.03648 27.03484,0.166592 34.80682,4.039641 14.21678,7.084526 24.70084,27.795868 17.64295,34.853768 -3.76421,3.764154 -5.88378,8.951154 -5.9064,14.454074 -0.0122,2.93369 -0.45843,6.96275 -0.99201,8.95347 l -0.96996,3.61952 H 58.95626 14.28857 Z"
       id="path2546"
       sodipodi:nodetypes="ssssssscssssccscssssssssccscscccssccccssscsssccccc" />
  </g>
</svg>
